<svg width="246" height="246" viewBox="0 0 246 246" fill="none" xmlns="http://www.w3.org/2000/svg">
<path d="M246 123C246 190.945 190.945 246 123 246C55.0546 246 0 190.945 0 123C0 55.0546 55.0546 0 123 0C190.945 0 246 55.0546 246 123Z" fill="black"/>
<path d="M191.841 71.8727H153.079L139.83 103.563H164.179L140.009 147.606L152.837 170.971L161.315 145.279H187.275V121.288H171.251L191.841 71.8727Z" fill="#FF3DAD"/>
<path d="M102.062 183.772H146.052L124.031 143.855L102.062 183.772Z" fill="#FF3DAD"/>
<path d="M144.216 114.574H140.098L123.985 143.936L107.871 114.574H103.753L121.926 147.606L101.963 183.772H106.081L123.985 151.277L141.889 183.772H145.29L145.559 183.056L126.044 147.606L144.216 114.574Z" fill="#FF3DAD"/>
<path d="M58.6361 145.279H84.5968L95.2497 170.971L108.141 147.606L83.9702 103.563H108.499L95.8763 71.8727H54.1602L74.6602 121.288H58.6361V145.279Z" fill="#FF3DAD"/>
</svg>
