<svg width="403" height="402" viewBox="0 0 403 402" fill="none" xmlns="http://www.w3.org/2000/svg">
<path d="M201.214 401.301C312.341 401.301 402.428 311.467 402.428 200.65C402.428 89.8343 312.341 3.05176e-05 201.214 3.05176e-05C90.0865 3.05176e-05 0 89.8343 0 200.65C0 311.467 90.0865 401.301 201.214 401.301Z" fill="#2A38CB"/>
<mask id="mask0" mask-type="alpha" maskUnits="userSpaceOnUse" x="0" y="0" width="403" height="402">
<path d="M201.214 401.301C312.341 401.301 402.428 311.467 402.428 200.65C402.428 89.8342 312.341 0 201.214 0C90.0865 0 0 89.8342 0 200.65C0 311.467 90.0865 401.301 201.214 401.301Z" fill="#2A38CB"/>
</mask>
<g mask="url(#mask0)">
<path opacity="0.2" d="M201.214 403.748C313.371 403.748 404.292 312.818 404.292 200.65C404.292 88.4828 313.371 -2.44693 201.214 -2.44693C89.0569 -2.44693 -1.86426 88.4828 -1.86426 200.65C-1.86426 312.818 89.0569 403.748 201.214 403.748Z" fill="url(#paint0_linear)"/>
<path opacity="0.4" d="M220.205 357.372C317.433 357.372 396.252 278.546 396.252 181.308C396.252 84.0702 317.433 5.24352 220.205 5.24352C122.976 5.24352 44.1572 84.0702 44.1572 181.308C44.1572 278.546 122.976 357.372 220.205 357.372Z" fill="url(#paint1_linear)"/>
<path opacity="0.5" d="M239.196 311.113C321.496 311.113 388.213 244.389 388.213 162.082C388.213 79.7741 321.496 13.0505 239.196 13.0505C156.896 13.0505 90.1787 79.7741 90.1787 162.082C90.1787 244.389 156.896 311.113 239.196 311.113Z" fill="url(#paint2_linear)"/>
<path opacity="0.7" d="M258.304 264.854C325.675 264.854 380.291 210.233 380.291 142.856C380.291 75.4779 325.675 20.8574 258.304 20.8574C190.933 20.8574 136.317 75.4779 136.317 142.856C136.317 210.233 190.933 264.854 258.304 264.854Z" fill="url(#paint3_linear)"/>
<path d="M277.295 218.595C329.738 218.595 372.251 176.077 372.251 123.63C372.251 71.1818 329.738 28.6644 277.295 28.6644C224.852 28.6644 182.339 71.1818 182.339 123.63C182.339 176.077 224.852 218.595 277.295 218.595Z" fill="url(#paint4_linear)"/>
</g>
<path fill-rule="evenodd" clip-rule="evenodd" d="M274.383 226.868L249.1 191.678L251.663 187.367C251.663 187.367 256.556 174.783 257.255 168.374C259.353 150.197 247.236 139.01 231.274 136.563C226.031 135.864 220.788 135.515 215.545 135.515C167.426 135.515 140.279 135.515 140.279 135.515V236.656L159.27 209.623L183.504 243.997L140.279 303.889H101.364V96.713C101.364 96.713 145.056 96.713 227.429 96.9461C252.129 97.6452 272.984 108.132 286.733 129.689C294.073 141.108 296.753 153.925 296.403 167.558C296.054 182.823 291.044 196.689 284.053 209.972C281.257 215.449 274.383 226.868 274.383 226.868Z" fill="white"/>
<path fill-rule="evenodd" clip-rule="evenodd" d="M198.767 152.41L301.297 304.005H256.324L174.883 186.784L198.767 152.41Z" fill="white"/>
<defs>
<linearGradient id="paint0_linear" x1="53.7778" y1="347.976" x2="348.175" y2="82.7754" gradientUnits="userSpaceOnUse">
<stop stop-color="#1CA4FF"/>
<stop offset="0.239583" stop-color="#3868FE"/>
<stop offset="0.552083" stop-color="#A033EB"/>
<stop offset="0.78125" stop-color="#F333DD"/>
<stop offset="1" stop-color="#FF34DB"/>
</linearGradient>
<linearGradient id="paint1_linear" x1="92.3931" y1="309.024" x2="347.605" y2="79.1224" gradientUnits="userSpaceOnUse">
<stop stop-color="#1CA4FF"/>
<stop offset="0.239583" stop-color="#3868FE"/>
<stop offset="0.552083" stop-color="#A033EB"/>
<stop offset="0.78125" stop-color="#F333DD"/>
<stop offset="1" stop-color="#FF34DB"/>
</linearGradient>
<linearGradient id="paint2_linear" x1="131.008" y1="270.188" x2="347.035" y2="75.586" gradientUnits="userSpaceOnUse">
<stop stop-color="#1CA4FF"/>
<stop offset="0.239583" stop-color="#3868FE"/>
<stop offset="0.552083" stop-color="#A033EB"/>
<stop offset="0.78125" stop-color="#F333DD"/>
<stop offset="1" stop-color="#FF34DB"/>
</linearGradient>
<linearGradient id="paint3_linear" x1="169.741" y1="231.353" x2="346.582" y2="72.0495" gradientUnits="userSpaceOnUse">
<stop stop-color="#1CA4FF"/>
<stop offset="0.239583" stop-color="#3868FE"/>
<stop offset="0.552083" stop-color="#A033EB"/>
<stop offset="0.78125" stop-color="#F333DD"/>
<stop offset="1" stop-color="#FF34DB"/>
</linearGradient>
<linearGradient id="paint4_linear" x1="208.356" y1="192.517" x2="346.012" y2="68.513" gradientUnits="userSpaceOnUse">
<stop stop-color="#1CA4FF"/>
<stop offset="0.239583" stop-color="#3868FE"/>
<stop offset="0.552083" stop-color="#A033EB"/>
<stop offset="0.78125" stop-color="#F333DD"/>
<stop offset="1" stop-color="#FF34DB"/>
</linearGradient>
</defs>
</svg>
